<?xml version="1.0" encoding="UTF-8" standalone="no"?>
<svg
   xmlns:dc="http://purl.org/dc/elements/1.1/"
   xmlns:cc="http://creativecommons.org/ns#"
   xmlns:rdf="http://www.w3.org/1999/02/22-rdf-syntax-ns#"
   xmlns:svg="http://www.w3.org/2000/svg"
   xmlns="http://www.w3.org/2000/svg"
   xml:space="preserve"
   style="width: 512px; height: 512px; opacity: 1;"
   viewBox="0 0 512 512"
   y="0px"
   x="0px"
   id="_x31_0"
   version="1.1"><metadata
     id="metadata15"><rdf:RDF><cc:Work
         rdf:about=""><dc:format>image/svg+xml</dc:format><dc:type
           rdf:resource="http://purl.org/dc/dcmitype/StillImage" /><dc:title></dc:title></cc:Work></rdf:RDF></metadata><defs
     id="defs13" /><style
     id="style3"
     type="text/css">
	.st0{fill:#374149;}
</style><g
     style="fill:#cccccc"
     id="g5"><path
       id="path7"
       style="fill:#cccccc"
       d="M487.254,511.922c-10.678-72.298-13.728-77.214-17.794-83.991l-5.07,3.039l-1.41,0.793l5.671-3.476l0.59-0.352   l-0.007-0.007l0.136-0.086l-2.878-4.148c-3.647-4.409-14.579-17.887-104.843-67.212l-18.814-18.814v-8.054   c11.186-11.104,18.732-22.375,23.391-34.834c16.782-4.066,29.75-14.24,37.717-29.75c6.78-13.224,8.307-26.781,9.151-38.31   c0.168-2.214,0.086-4.222,0.082-6.292c0-0.031,0-0.058,0-0.086c-0.086-23.477-10.885-37.791-24.062-44.786   c-0.305-0.168-0.618-0.344-0.91-0.496c-0.496-0.25-0.965-0.574-1.468-0.801c0.09-2.542,0.09-5.51,0.09-9.069   c0-7.292-0.512-14.83-1.613-22.458c0.511-1.105,1.015-2.289,1.523-3.566c8.393-19.575,16.782-33.983,24.414-41.529   c4.66-4.659,6.609-11.44,4.914-17.201c-1.523-5.425-5.761-9.413-11.272-10.764c-29.41-7.378-56.276-17.38-80.093-29.917   l-1.61-0.938c-0.511-0.25-1.019-0.508-1.441-0.762l-0.679-0.336c-3.726-1.953-7.202-3.902-10.17-5.679l-1.02-0.597   c-13.134-7.878-23.051-15.17-30.257-20.423c-7.624-5.593-11.866-8.647-16.271-10.002C260.71,0.34,258.25,0.09,256.637,0h-1.355   c-1.609,0.09-3.984,0.34-6.444,1.019c-4.406,1.355-8.644,4.41-16.354,10.085c-6.526,4.749-15.341,11.275-26.866,18.31l-2.969,1.777   c-4.238,2.542-8.729,5.09-13.728,7.628l-6.358,3.39c-22.63,11.361-47.887,20.598-75.18,27.464   c-5.675,1.351-9.998,5.425-11.44,10.846c-1.613,5.85,0.426,12.63,5.086,17.118c5.167,5.171,13.642,16.614,24.156,41.193l1.61,3.984   c-1.02,7.627-1.527,15.083-1.527,22.375v8.987c-15.424,7.03-28.39,23.477-26.27,52.461c0.844,11.694,2.289,25.168,9.151,38.392   c7.967,15.599,20.934,25.766,37.717,29.832c4.574,12.205,12.201,23.566,23.137,34.498v8.475l-18.474,18.474   c-90.35,49.497-101.371,62.975-105.609,68.232l-2.289,3.39c-3.96,6.464-6.933,11.382-16.462,74.528   c-0.465,3.015-0.926,6.014-1.422,9.307h0.027c-0.011,0.054-0.015,0.102-0.027,0.156h122.411L207.422,512l-0.043-0.078h0.184   l-12.374-21.782l-5.506-9.749c-1.274-1.949-0.254-4.487,1.949-5.253l33.733-35.092c1.946,1.527,13.646,29.414,23.138,32.382v3.98   c-3.566,2.57-7.038,23.582-9.097,34.729l-0.144,0.629h0.031c-0.008,0.047-0.02,0.11-0.027,0.156h28.374l4.944,0.031l-0.003-0.031   h0.164c-1.95-10.932-5.515-32.886-9.155-35.514v-3.98c9.393-2.965,21.071-30.777,23.13-32.37l0.007-0.007l33.647,35.088   c2.203,0.766,3.222,3.304,2.035,5.253l-5.507,9.749l-8.218,14.466l-4.159,7.159h0.094l-0.094,0.156H487.254z M282.434,121.895   c-0.878,0.79-1.754,1.586-2.742,2.359c-3.648,2.965-8.054,5.765-13.474,8.558l-3.308,1.613l-5.679,2.882l-5.675-2.882l-3.226-1.613   c-5.589-2.793-10.085-5.761-13.814-8.73c-2.797-2.206-5.085-4.406-6.948-6.608c-5.847-7.034-7.714-13.986-7.546-20.087   c0-3.136,0.511-6.018,1.273-8.647c0.34-1.355,0.934-2.71,1.442-3.815c0-0.168,0.086-0.422,0.168-0.59l-0.844-1.101l-6.526-8.136   l4.238-5.003l2.457-2.882l3.562-4.152l0.34-0.336l0.082-0.258c0.422-0.422,1.269-1.442,2.034-2.371l3.133-4.409l5.597-7.374   l8.725,2.969l4.074,1.523l2.203-1.016l5.933-2.968l5.593,3.222l1.269,0.675l3.984-1.437l8.815-2.969l5.51,7.374l3.054,4.238   c0.672,0.933,1.61,1.862,2.031,2.46l0.168,0.164l3.902,4.664l6.776,7.885l-6.608,8.218l-0.762,1.019   c0.082,0.168,0.082,0.422,0.168,0.59c3.222,7.627,5.678,20.176-5.171,32.803c-0.711,0.801-1.519,1.598-2.32,2.398   C283.71,120.731,283.082,121.318,282.434,121.895z M274.013,414.366h-35.939c-0.672,0-1.52-0.422-1.61-1.098l-28.562-51.785   v-18.056c13.9,10.424,29.749,18.396,48.058,18.396c15.279,0,28.679-5.492,40.729-13.322c0.652-0.414,1.304-0.816,1.96-1.254   c0.172-0.118,0.344-0.238,0.516-0.356c1.633-1.094,3.273-2.214,4.933-3.437v18.029l-28.476,51.785   C275.454,413.945,274.606,414.366,274.013,414.366z M328.364,214.284c1.523-1.094,3.09-2.164,4.499-3.301   c2.332-1.847,4.484-3.683,6.406-5.479c0,1.222,0,2.449-0.078,3.585c-0.422,11.53-1.273,24.922-2.038,36.28   c0,0.168,0,0.422-0.082,0.59c-1.019,7.714-1.777,14.752-2.289,20.853c-0.339,4.323-0.93,8.901-2.796,14.154   c-1.187,3.472-2.969,7.034-5.593,10.936c-2.375,3.64-5.511,7.538-9.749,11.526c-0.422,0.508-1.019,1.011-1.441,1.523   c-3.05,2.882-6.101,5.846-9.237,8.815c-14.662,13.389-31.53,26.531-50.005,26.531c-18.31,0-35.26-13.142-49.75-26.531   c-3.308-2.969-6.358-5.933-9.327-8.815c-0.59-0.512-1.015-0.934-1.437-1.442c-4.156-4.07-7.378-7.967-9.749-11.607   c-2.629-3.902-4.406-7.464-5.593-10.936c-1.949-5.253-2.542-9.83-2.801-14.154c-0.59-6.694-1.437-14.24-2.538-22.883v-0.762   c-0.679-10.85-1.527-23.31-1.867-34.078c-0.082-1.269-0.167-2.538-0.167-3.808c5.085,4.914,11.018,9.663,17.966,13.643   c16.103,9.744,37.549,16.528,65.263,16.528c30.558,0,53.515-8.318,70.15-19.547C326.915,215.37,327.598,214.822,328.364,214.284z    M244.858,214.346c1.363,0.746,2.933,1.433,4.398,2.156c1.238,0.652,2.394,1.277,3.702,1.968   c-45.169-3.187-66.697-16.704-76.84-29.632c-0.843-1.019-1.691-2.121-2.37-3.14l3.558,0.426l42.466,4.914   C225.7,200.614,234.347,208.418,244.858,214.346z M166.459,389.194c0.082-1.102,0.679-2.121,1.523-2.71l12.885-16.021l0.086-0.082   v-0.082l6.609-8.226l0.426-0.508l14.748,27.375v0.09l3.476,6.437l11.439,21.36l1.355,3.39l-39.24,36.698l-8.815,2.882   c-2.46,0.848-5.085-1.183-4.749-3.812L166.459,389.194z M294.436,416.827l11.53-21.442l3.39-6.354l14.744-27.465l0.34,0.422   l6.612,8.225l13.053,16.271c0.762,0.59,1.441,1.609,1.441,2.71l0.254,66.79c0.339,2.629-2.289,4.66-4.75,3.812l-8.725-2.882   l-39.33-36.698L294.436,416.827z M357.165,258.953c1.269-11.936,3.218-26.582,5.753-43.759c0.258-1.355,0.426-2.878,0.598-4.487   c0.082-1.191,0.168-2.289,0.25-3.48c0.852-0.336,1.781-0.422,2.801-0.422c0.847,0,1.777,0,2.628,0.254   c6.015,1.359,7.796,7.206,7.034,16.865c-0.766,9.83-1.695,17.548-5.175,24.242c-1.851,3.628-4.742,8.01-11.775,10.236   C358.602,258.601,357.918,258.797,357.165,258.953z M327.403,158.089c-0.254,2.278-0.758,4.226-1.437,5.746H186.038   c-0.68-1.523-1.106-3.476-1.355-5.761h128.339L327.403,158.089z M140.947,248.166c-3.472-6.694-4.41-14.412-5.171-24.242   c-0.675-9.659,0.934-15.506,7.038-16.865c1.015-0.254,1.859-0.254,2.71-0.254h0.086c0.93,0,1.782,0.086,2.711,0.422   c0,1.191,0.086,2.289,0.171,3.48c0.25,1.609,0.336,3.132,0.59,4.487c1.831,11.994,3.277,22.673,4.452,32.136   c0.453,3.894,0.957,7.815,1.336,11.666C146.193,256.953,142.978,252.138,140.947,248.166z"
       class="st0" /><path
       id="path9"
       style="fill:#cccccc"
       d="M282.66,75.348l-3.902-4.578c-0.34-0.422-1.695-1.949-2.629-3.218l-3.218-4.323l-4.918,1.777   c-1.106,0.34-2.202,0.512-3.304,0.512c-2.371,0-4.238-0.762-4.324-0.762l-2.882-1.695l-3.308,1.609   c-0.082,0-1.945,0.848-4.402,0.848c-1.105,0-2.206-0.172-3.222-0.512l-4.999-1.777l-3.14,4.323   c-1.187,1.442-2.628,3.218-2.628,3.218l-2.797,3.308l-1.102,1.27l0.852,1.187v0.086l2.878,3.39   c1.527,1.781,1.866,2.289-1.351,9.917c-5.003,11.779,2.198,20.34,9.658,25.766c3.816,2.71,7.799,4.663,10.002,5.761l2.457,1.273   l0.847,0.426l0.762-0.339l2.461-1.359c2.289-1.098,6.014-2.965,9.745-5.675c7.714-5.429,15.087-13.986,10.002-25.851   c-3.218-7.628-2.797-8.136-1.356-9.917L282.66,75.348z M240.959,92.81c3.558-8.476,4.41-12.291,0.254-17.29   c0,0,1.695-1.949,2.964-3.648c1.949,0.679,3.984,0.938,5.597,0.938c4.32,0,7.456-1.61,7.456-1.61s3.136,1.61,7.46,1.61   c1.695,0,3.73-0.258,5.593-0.938c1.355,1.699,2.882,3.648,2.882,3.648c-4.07,4.999-3.222,8.814,0.34,17.29   c3.644,8.475-2.543,15.251-16.275,22.207C243.584,108.062,237.226,101.286,240.959,92.81z"
       class="st0" /></g><rect
     y="370.88931"
     x="75.296089"
     height="125.47561"
     width="101.6112"
     id="rect3343"
     style="fill:#e6e6e6;stroke:#999999;stroke-width:31.40574455;stroke-linecap:butt;stroke-linejoin:round;stroke-miterlimit:4;stroke-dasharray:none;stroke-opacity:1" /><circle
     r="15.914014"
     cy="408.94916"
     cx="137.76271"
     id="path4147"
     style="fill:#cccccc;stroke:#999999;stroke-width:8.9516325;stroke-linecap:butt;stroke-linejoin:round;stroke-miterlimit:4;stroke-dasharray:none;stroke-opacity:1" /></svg>